<svg xmlns="http://www.w3.org/2000/svg" xmlns:xlink="http://www.w3.org/1999/xlink" width="240" height="150" viewBox="0 0 240 150"><defs><filter id="a" x="80.4" y="38.4" width="79.2" height="79.2" filterUnits="userSpaceOnUse"><feOffset dy="3" input="SourceAlpha"/><feGaussianBlur stdDeviation="3" result="b"/><feFlood flood-opacity="0.161"/><feComposite operator="in" in2="b"/><feComposite in="SourceGraphic"/></filter><clipPath id="d"><rect width="240" height="150"/></clipPath></defs><g id="c" clip-path="url(#d)"><rect width="240" height="150" fill="#1f3d5e"/><g transform="matrix(1, 0, 0, 1, 0, 0)" filter="url(#a)"><path d="M31.6,1A30.6,30.6,0,1,0,62.2,31.6,30.592,30.592,0,0,0,31.6,1ZM46.186,33.283,25.505,48.736A2.4,2.4,0,0,1,21.4,47.053V16.147a2.4,2.4,0,0,1,4.105-1.683l20.68,15.453A2.355,2.355,0,0,1,46.186,33.283Z" transform="translate(88.4 43.4)" fill="#e9e9e9"/></g></g></svg>