<svg xmlns="http://www.w3.org/2000/svg" xmlns:xlink="http://www.w3.org/1999/xlink" width="256" height="256" viewBox="0 0 256 256"><defs><filter id="a" x="62.8" y="65.8" width="130.4" height="130.4" filterUnits="userSpaceOnUse"><feOffset dy="3" input="SourceAlpha"/><feGaussianBlur stdDeviation="3" result="b"/><feFlood flood-opacity="0.161"/><feComposite operator="in" in2="b"/><feComposite in="SourceGraphic"/></filter><clipPath id="d"><rect width="256" height="256"/></clipPath></defs><g id="c" clip-path="url(#d)"><rect width="256" height="256" fill="#1f3d5e"/><g transform="matrix(1, 0, 0, 1, 0, 0)" filter="url(#a)"><path d="M57.2,1a56.2,56.2,0,1,0,56.2,56.2A56.185,56.185,0,0,0,57.2,1ZM83.988,60.291,46.006,88.672a4.409,4.409,0,0,1-7.54-3.091V28.819a4.409,4.409,0,0,1,7.54-3.091L83.988,54.109A4.326,4.326,0,0,1,83.988,60.291Z" transform="translate(70.8 70.8)" fill="#e9e9e9"/></g></g></svg>